#define close_width 7
#define close_height 6
static unsigned char close_bits[] = {
   0x00, 0x22, 0x14, 0x08, 0x14, 0x22 };
