#define iconify_width 7
#define iconify_height 6
static unsigned char iconify_bits[] = {
   0x00, 0x00, 0x00, 0x3e, 0x00, 0x00 };
