#define max_toggled_width 7
#define max_toggled_height 6
static unsigned char max_toggled_bits[] = {
   0x08, 0x08, 0x2a, 0x1c, 0x08, 0x00 };
