#define max_width 7
#define max_height 6
static unsigned char max_bits[] = {
   0x00, 0x08, 0x1c, 0x2a, 0x08, 0x08 };
