#define close_width 6
#define close_height 6
static unsigned char close_bits[] = {
   0x0c, 0x1e, 0x33, 0x33, 0x1e, 0x0c };
