#define close_width 7
#define close_height 6
static unsigned char close_bits[] = {
   0x00, 0x00, 0x1c, 0x1c, 0x1c, 0x00 };
